<svg id="loguot-icon" data-name="Слой 1" xmlns="http://www.w3.org/2000/svg" viewBox="0 0 12 14"><title>logout_icon</title><path d="M174.88,252.55l-2.56-2.68a.39.39,0,0,0-.56,0,.41.41,0,0,0,0,.57l1.7,1.74h-7a.42.42,0,0,0,0,.84h7.35l-2.05,2.19a.48.48,0,0,0,0,.63.39.39,0,0,0,.56,0l2.56-2.68a.44.44,0,0,0,0-.59Zm-3.5,5a.41.41,0,0,0-.4.42v0c0,.55-.39,1.16-.91,1.16h-5.19A1.25,1.25,0,0,1,163.8,258V247.61c0-.59.61-.78,1.09-.78h5.19c.5,0,.91.21.91.78v0a.4.4,0,1,0,.8,0v0a1.57,1.57,0,0,0-1.7-1.61h-5.19a1.73,1.73,0,0,0-1.89,1.61V258a2.06,2.06,0,0,0,1.89,2h5.19a1.91,1.91,0,0,0,1.7-2v0A.41.41,0,0,0,171.38,257.56Z" transform="translate(-163 -246)"/></svg>
